<mxfile host="65bd71144e">
    <diagram id="ETBw4vPyI1mWKPedyEt5" name="Page-1">
        <mxGraphModel dx="460" dy="605" grid="1" gridSize="10" guides="1" tooltips="1" connect="1" arrows="1" fold="1" page="1" pageScale="1" pageWidth="2339" pageHeight="3300" math="0" shadow="0">
            <root>
                <mxCell id="0"/>
                <mxCell id="1" parent="0"/>
                <mxCell id="22" value="" style="group" parent="1" vertex="1" connectable="0">
                    <mxGeometry x="470" y="260" width="100" height="120" as="geometry"/>
                </mxCell>
                <mxCell id="7" value="Hinlegen" style="rounded=0;whiteSpace=wrap;html=1;fontFamily=Alegreya;fontSource=https%3A%2F%2Ffonts.googleapis.com%2Fcss%3Ffamily%3DAlegreya;align=left;spacingLeft=3;spacing=3;spacingBottom=0;spacingRight=0;" parent="22" vertex="1">
                    <mxGeometry width="100" height="30" as="geometry"/>
                </mxCell>
                <mxCell id="8" value="Schritt" style="rounded=0;whiteSpace=wrap;html=1;fontFamily=Alegreya;fontSource=https%3A%2F%2Ffonts.googleapis.com%2Fcss%3Ffamily%3DAlegreya;align=left;spacingLeft=3;spacing=3;spacingBottom=0;spacingRight=0;" parent="22" vertex="1">
                    <mxGeometry y="30" width="100" height="30" as="geometry"/>
                </mxCell>
                <mxCell id="9" value="Schritt" style="rounded=0;whiteSpace=wrap;html=1;fontFamily=Alegreya;fontSource=https%3A%2F%2Ffonts.googleapis.com%2Fcss%3Ffamily%3DAlegreya;align=left;spacingLeft=3;spacing=3;spacingBottom=0;spacingRight=0;" parent="22" vertex="1">
                    <mxGeometry y="90" width="100" height="30" as="geometry"/>
                </mxCell>
                <mxCell id="10" value="Hinlegen(2)" style="rounded=0;whiteSpace=wrap;html=1;fontFamily=Alegreya;fontSource=https%3A%2F%2Ffonts.googleapis.com%2Fcss%3Ffamily%3DAlegreya;align=left;spacingLeft=3;spacing=3;spacingBottom=0;spacingRight=0;" parent="22" vertex="1">
                    <mxGeometry y="60" width="100" height="30" as="geometry"/>
                </mxCell>
                <mxCell id="23" value="baueKleineTreppe" style="shape=process;whiteSpace=wrap;html=1;backgroundOutline=1;fontFamily=Alegreya;fontSource=https%3A%2F%2Ffonts.googleapis.com%2Fcss%3Ffamily%3DAlegreya;" parent="1" vertex="1">
                    <mxGeometry x="465" y="450" width="120" height="35" as="geometry"/>
                </mxCell>
                <mxCell id="24" value="Hinlegen" style="rounded=0;whiteSpace=wrap;html=1;fontFamily=Alegreya;fontSource=https%3A%2F%2Ffonts.googleapis.com%2Fcss%3Ffamily%3DAlegreya;align=left;spacingLeft=3;spacing=3;spacingBottom=0;spacingRight=0;" vertex="1" parent="1">
                    <mxGeometry x="470" y="380" width="100" height="30" as="geometry"/>
                </mxCell>
                <mxCell id="26" value="baueKleineTreppe()" style="text;html=1;strokeColor=none;fillColor=none;align=center;verticalAlign=middle;whiteSpace=wrap;rounded=0;fontFamily=Alegreya;fontSource=https%3A%2F%2Ffonts.googleapis.com%2Fcss%3Ffamily%3DAlegreya;" vertex="1" parent="1">
                    <mxGeometry x="465" y="230" width="110" height="30" as="geometry"/>
                </mxCell>
            </root>
        </mxGraphModel>
    </diagram>
</mxfile>
